PathFileType	4	(X/Y/Z)	pose_F01_0-97.trc
DataRate	CameraRate	NumFrames	NumMarkers	Units	OrigDataRate	OrigDataStartFrame	OrigNumFrames
30	30	7	21	m	30	60	97
Frame#	Time	CHip			RHip			RKnee			RAnkle			RBigToe			RSmallToe			RHeel			LHip			LKnee			LAnkle			LBigToe			LSmallToe			LHeel			Neck			Nose			RShoulder			RElbow			RWrist			LShoulder			LElbow			LWrist			
		X1	Y1	Z1	X2	Y2	Z2	X3	Y3	Z3	X4	Y4	Z4	X5	Y5	Z5	X6	Y6	Z6	X7	Y7	Z7	X8	Y8	Z8	X9	Y9	Z9	X10	Y10	Z10	X11	Y11	Z11	X12	Y12	Z12	X13	Y13	Z13	X14	Y14	Z14	X15	Y15	Z15	X16	Y16	Z16	X17	Y17	Z17	X18	Y18	Z18	X19	Y19	Z19	X20	Y20	Z20	X21	Y21	Z21	
60	2.0	-0.24687815257611742	1.8895667328802404	-0.5098777269439191	-0.25890012726158174	1.8869058005175385	-0.4526377605353582	-0.2687591875068005	1.7358842543668718	-0.4232303020987735													-0.230838321462877	1.8930190394203088	-0.5749850979413007	-0.2272997000609861	1.7433365396541207	-0.5714241874137888	-0.21768827657529763	1.588703058857161	-0.5401559217320623	-0.21921104036906808	1.5602183345068181	-0.6140912996301879	-0.210821101439871	1.5713576434638603	-0.6243077179394795	-0.22241598197706322	1.5755021463281955	-0.5166546282728793	-0.23809151628901576	2.0500229755371664	-0.5279991605316492	-0.22597984699150747	2.116571501133611	-0.6103189530049512	-0.25768617588702686	2.0522650586505895	-0.4475897003886317	-0.26640211295660254	1.9710610147409457	-0.38962657751531093	-0.28626122781086116	1.8946056604771149	-0.3770637456280926	-0.2106333198363352	2.0437106343070233	-0.5969733896900228	-0.20914212784220995	2.0009814445608862	-0.6880704845475493	-0.2091739016237282	2.063027037193225	-0.6629967548266028
61	2.033333333333333	-0.25019615498124936	1.887903744767655	-0.5019810200688067	-0.26878260128217507	1.8849427264084677	-0.44151002785753624	-0.26728153318258163	1.7361217800025652	-0.4137899757049													-0.23729443408254608	1.890790875988311	-0.5679944399629033	-0.2289386821106081	1.7438340506094632	-0.5656198664807386	-0.21724544438370771	1.5883370231592115	-0.5408196399464167	-0.2225729307939494	1.5612144090445803	-0.6151834369020301	-0.21132588724577242	1.570851730938342	-0.6237938342958053	-0.22241598197706322	1.5755021463281955	-0.5166546282728793	-0.2411785039872727	2.050085059018376	-0.5205036235336539	-0.23343720244383095	2.1151584200561055	-0.598800584615391	-0.2605192324302671	2.0520243496263033	-0.44015895862256943	-0.2702100486458165	1.9695623707670091	-0.38466960443526566	-0.28672625808806884	1.8913289525851578	-0.3620891224578946	-0.2158493694308601	2.044984143069023	-0.5872055625182137	-0.21276657728784906	1.9988304667457073	-0.6801585298537787	-0.21568393971357294	2.063353055412591	-0.6573132676845835
62	2.066666666666667	-0.2568761773692008	1.888994939495678	-0.49021014220642	-0.2723244273628205	1.886126616688092	-0.43694654631711655	-0.2658038788583628	1.7363593056382587	-0.40434964931102657													-0.23933062771640937	1.8922698667124673	-0.5484125456392859	-0.23158582574208342	1.7487638294238002	-0.5587811095044345	-0.2173520061593505	1.5896198116417972	-0.5406697949618485	-0.22134633837217776	1.5601774916702462	-0.611967151127109	-0.21090812500697215	1.571658385962836	-0.6243160372768874	-0.22241598197706322	1.5755021463281955	-0.5166546282728793	-0.24338289061888668	2.0484741459434934	-0.5098263460135033	-0.23668354892272778	2.1147181748918378	-0.5832930113679438	-0.2653994393117975	2.05061452895407	-0.43061266952374366	-0.2751240472365229	1.9663800584284552	-0.37495617346836874	-0.28836086648361325	1.887409748304908	-0.35076766530968373	-0.22019491702153493	2.0418751533008175	-0.5826998810882311	-0.22049372774622528	1.9986652053668696	-0.6680289278542164	-0.2144493648019217	2.0503090358241485	-0.6600787578712567
63	2.1	-0.25990053272184777	1.8823054913874029	-0.4815443396148382	-0.2751693710779878	1.8793667412516137	-0.4282216709029674	-0.26432622453414395	1.7365968312739521	-0.3949093229171531													-0.2406130762316654	1.8837551880356231	-0.541884537421449	-0.23193030981113244	1.7448689490633618	-0.5579730283006182	-0.21789674484850555	1.5896668950178285	-0.5392362345897962	-0.22471050603303452	1.5610955408098004	-0.6129909199400985	-0.2139699050375049	1.5715075987867595	-0.6254145922868496	-0.22241598197706322	1.5755021463281955	-0.5166546282728793	-0.24644796477542597	2.0465152353074103	-0.4940110945261547	-0.24105409641136086	2.1138113752000405	-0.5705591383425059	-0.2729431779316015	2.050233998297703	-0.42199335973765933	-0.2807431120845432	1.966179435566481	-0.3683503690577463	-0.2949871218550517	1.880838007380936	-0.33828676593133905	-0.2185380994532388	2.039061731961536	-0.5761278446224978	-0.22421611752459533	1.9867552830647033	-0.6574533703163711	-0.2150924775249812	2.047273566172635	-0.6629305794978352
64	2.1333333333333333	-0.26213900603284923	1.8872641480293395	-0.47115481008828064	-0.27787569035126924	1.8834508338108331	-0.40391702974300875	-0.2628485702099251	1.7368343569096458	-0.3854689965232796													-0.24401672425444831	1.886794503211562	-0.5346881420041893	-0.23801270636088293	1.7446062209506699	-0.5428604479714422	-0.2184414835376606	1.5897139783938599	-0.5378026742177439	-0.2224206760040744	1.5649806011622664	-0.607678060781523	-0.21177398847336187	1.5755109695991887	-0.6200444120300749	-0.22241598197706322	1.5755021463281955	-0.5166546282728793	-0.24935526052475107	2.0473785989370423	-0.4862521417546909	-0.24627416654775122	2.1136134157899096	-0.5608780411134409	-0.27287634236233654	2.0498947952696978	-0.4134749928004873	-0.28335247492167315	1.966112153022801	-0.3608439441515418	-0.29757284650180116	1.8855601553864667	-0.3310854640089736	-0.222732958979992	2.0389254460228186	-0.5632123226213682	-0.2253789589283759	1.9878006457761093	-0.6432287691523332	-0.22030473739143117	2.0325699922189324	-0.6713585217616951
65	2.1666666666666665	-0.2596882286787686	1.885611069368868	-0.4553874906915321	-0.27621604119647863	1.881447972493542	-0.39148961102314017	-0.26137091588570627	1.7370718825453393	-0.3760286701294061													-0.2487780472351609	1.8887051803413075	-0.5247393103798301	-0.23806879767483446	1.7470561292181552	-0.5342957881393069	-0.21898622222681566	1.5897610617698912	-0.5363691138456914	-0.22619122310253417	1.5657073956694345	-0.6124618110172421	-0.21532482291115124	1.5757102907719713	-0.6249009465623635	-0.22241598197706322	1.5755021463281955	-0.5166546282728793	-0.25234073353786657	2.0447159983509695	-0.47829089592223245	-0.24925382234766721	2.1135999289023637	-0.553487517503942	-0.27242278076358284	2.04817029160467	-0.3965574828904412	-0.2799639119151653	1.9649612200640403	-0.3506399995760505	-0.29389363213933956	1.8900892836920706	-0.32148359082736216	-0.2259219795053979	2.0396528840146	-0.5471179411869421	-0.22418274044573366	1.991469955921761	-0.639848349759259	-0.2255169972578811	2.01786641826523	-0.6797864640255551
66	2.2	-0.26161270626535243	1.8831030887411533	-0.4443007495335637	-0.27417301819898204	1.8838965719722578	-0.3848900030217299	-0.2598932615614874	1.7373094081810327	-0.3665883437355327													-0.24686836969204803	1.8856661876791594	-0.5005821899210433	-0.23892991982172	1.745719908423705	-0.5286689231072054	-0.2195309609159707	1.5898081451459225	-0.5349355534736391	-0.22633435236256688	1.566501615946223	-0.6125239784555992	-0.214224762163886	1.5759707613823333	-0.6303521559150808	-0.22241598197706322	1.5755021463281955	-0.5166546282728793	-0.2503065772243151	2.045272078397752	-0.46393867107318676	-0.24851107543486273	2.112771228417139	-0.533930634285725	-0.2740039838204935	2.047853532436664	-0.38595660557082395	-0.2776370571482211	1.9639781264546878	-0.3357033814550613	-0.2913727630646835	1.886518111023674	-0.30593702707094056	-0.22612663792486562	2.0389010375656667	-0.5385921084644164	-0.23275608291271685	1.9927868793878183	-0.6224236194210476	-0.23072925712433107	2.0031628443115275	-0.688214406289415
